<?xml-stylesheet type="text/css" href="https://www.processon.com/themes/default/mind/icons/icons.css" ?><svg xmlns="http://www.w3.org/2000/svg" style="position:absolute;left:0;top:0;width:919.227px;height:454px;background:#f8f8f8;z-index:999" id="mind-svg-con" width="919.227" height="454" version="1.1" xlink="http://www.w3.org/1999/xlink"><g id="svgbackgroundid"><rect width="919.227" height="454" x="0" y="0" fill="#f8f8f8"/></g><g id="sdjakdjak3"><g class="svg-topic-con" transform="translate(-9540.5, -9853) translate(0.5,0.5)"><path id="line_776c21eaf6b2" fill="none" stroke="#339CA8" stroke-width="5" d="M10000 9926 L10000 10007 L9657 10007 L9657 10030" part="right" sub="true"/><path id="line_4a6f370f4769" fill="none" stroke="#e85d4e" stroke-width="5" d="M10000 9926 L10000 10007 L10106 10007 L10106 10030" part="right" sub="true"/></g></g><g id="4a6f370f4769"><rect style="fill:#fff;stroke:#e85d4e;stroke-width:2px" width="62" height="50" x="535.008" y="177" rx="5" ry="5"/><g><text style="font-size:17px;font-family:微软雅黑;color:#444;font-style:normal;text-align:left;font-weight:400" fill="#444" align="top" anchor="start" font-size="17" font-weight="normal" text-anchor="start"><tspan x="547.008" y="207.711"><tspan>body</tspan></tspan></text></g></g><g id="56d7410c20ab"><rect style="fill:transparent;stroke:none" width="48" height="24" x="254" y="266.508" rx="1" ry="1"/><g><text style="font-size:13px;font-family:微软雅黑;color:#444;font-style:normal;text-align:left;font-weight:400" fill="#444" align="top" anchor="start" font-size="13" font-weight="normal" text-anchor="start"><tspan x="263" y="283.047"><tspan style="font-weight:700">h1</tspan></tspan></text></g></g><g id="98533138cc37"><rect style="fill:transparent;stroke:none" width="70" height="24" x="243" y="332.242" rx="1" ry="1"/><g><text style="font-size:13px;font-family:微软雅黑;color:#444;font-style:normal;text-align:left;font-weight:400" fill="#444" align="top" anchor="start" font-size="13" font-weight="normal" text-anchor="start"><tspan x="252" y="348.781"><tspan>稀土教程</tspan></tspan></text></g></g><g id="f7776de4ebe8"><rect style="fill:transparent;stroke:none" width="48" height="24" x="328" y="266.508" rx="1" ry="1"/><g><text style="font-size:13px;font-family:微软雅黑;color:#444;font-style:normal;text-align:left;font-weight:400" fill="#444" align="top" anchor="start" font-size="13" font-weight="normal" text-anchor="start"><tspan x="337" y="283.047"><tspan style="font-weight:700">img</tspan></tspan></text></g></g><g id="7bd0a9c4dc96"><rect style="fill:transparent;stroke:none" width="48" height="24" x="456.609" y="266.508" rx="1" ry="1"/><g><text style="font-size:13px;font-family:微软雅黑;color:#444;font-style:normal;text-align:left;font-weight:400" fill="#444" align="top" anchor="start" font-size="13" font-weight="normal" text-anchor="start"><tspan x="465.609" y="283.047"><tspan style="font-weight:700">p</tspan></tspan></text></g></g><g id="ddaccdb02985"><rect style="fill:transparent;stroke:none" width="67" height="24" x="391" y="332.242" rx="1" ry="1"/><g><text style="font-size:13px;font-family:微软雅黑;color:#444;font-style:normal;text-align:left;font-weight:400" fill="#444" align="top" anchor="start" font-size="13" font-weight="normal" text-anchor="start"><tspan x="400" y="348.781"><tspan>欢迎来...</tspan></tspan></text></g></g><g id="8296c6c8915a"><rect style="fill:transparent;stroke:none" width="48" height="24" x="497.758" y="332.242" rx="1" ry="1"/><g><text style="font-size:13px;font-family:微软雅黑;color:#444;font-style:normal;text-align:left;font-weight:400" fill="#444" align="top" anchor="start" font-size="13" font-weight="normal" text-anchor="start"><tspan x="506.758" y="348.781"><tspan>em</tspan></tspan></text></g></g><g id="45756d28929d"><rect style="fill:transparent;stroke:none" width="97" height="24" x="473.297" y="397.977" rx="1" ry="1"/><g><text style="font-size:13px;font-family:微软雅黑;color:#444;font-style:normal;text-align:left;font-weight:400" fill="#444" align="top" anchor="start" font-size="13" font-weight="normal" text-anchor="start"><tspan x="482.297" y="414.516"><tspan>Web开发课程</tspan></tspan></text></g></g><g id="1098bab02520"><rect style="fill:transparent;stroke:none" width="48" height="24" x="589.727" y="266.508" rx="1" ry="1"/><g><text style="font-size:13px;font-family:微软雅黑;color:#444;font-style:normal;text-align:left;font-weight:400" fill="#444" align="top" anchor="start" font-size="13" font-weight="normal" text-anchor="start"><tspan x="598.727" y="283.047"><tspan style="font-weight:700">h2</tspan></tspan></text></g></g><g id="0f899d1cb9a7"><rect style="fill:transparent;stroke:none" width="57" height="24" x="585.227" y="332.242" rx="1" ry="1"/><g><text style="font-size:13px;font-family:微软雅黑;color:#444;font-style:normal;text-align:left;font-weight:400" fill="#444" align="top" anchor="start" font-size="13" font-weight="normal" text-anchor="start"><tspan x="594.227" y="348.781"><tspan>第三课</tspan></tspan></text></g></g><g id="c17960a6de53"><rect style="fill:transparent;stroke:none" width="48" height="24" x="749.281" y="266.508" rx="1" ry="1"/><g><text style="font-size:13px;font-family:微软雅黑;color:#444;font-style:normal;text-align:left;font-weight:400" fill="#444" align="top" anchor="start" font-size="13" font-weight="normal" text-anchor="start"><tspan x="758.281" y="283.047"><tspan style="font-weight:700">p</tspan></tspan></text></g></g><g id="a2562fa0e1c0"><rect style="fill:transparent;stroke:none" width="67" height="24" x="657.227" y="332.242" rx="1" ry="1"/><g><text style="font-size:13px;font-family:微软雅黑;color:#444;font-style:normal;text-align:left;font-weight:400" fill="#444" align="top" anchor="start" font-size="13" font-weight="normal" text-anchor="start"><tspan x="666.227" y="348.781"><tspan>要进入...</tspan></tspan></text></g></g><g id="ff97190bbaf8"><rect style="fill:transparent;stroke:none" width="48" height="24" x="742.781" y="332.242" rx="1" ry="1"/><g><text style="font-size:13px;font-family:微软雅黑;color:#444;font-style:normal;text-align:left;font-weight:400" fill="#444" align="top" anchor="start" font-size="13" font-weight="normal" text-anchor="start"><tspan x="751.781" y="348.781"><tspan>a</tspan></tspan></text></g></g><g id="05296e2d09c4"><rect style="fill:transparent;stroke:none" width="55" height="24" x="739.523" y="397.977" rx="1" ry="1"/><g><text style="font-size:13px;font-family:微软雅黑;color:#444;font-style:normal;text-align:left;font-weight:400" fill="#444" align="top" anchor="start" font-size="13" font-weight="normal" text-anchor="start"><tspan x="748.523" y="414.516"><tspan>HTML</tspan></tspan></text></g></g><g id="ce1336df0eb8"><rect style="fill:transparent;stroke:none" width="80" height="24" x="809.047" y="332.242" rx="1" ry="1"/><g><text style="font-size:13px;font-family:微软雅黑;color:#444;font-style:normal;text-align:left;font-weight:400" fill="#444" align="top" anchor="start" font-size="13" font-weight="normal" text-anchor="start"><tspan x="818.047" y="348.781"><tspan>开始入手...</tspan></tspan></text></g></g><g id="776c21eaf6b2"><rect style="fill:#fff;stroke:#339ca8;stroke-width:2px" width="62" height="50" x="85.32" y="177" rx="5" ry="5"/><g><text style="font-size:17px;font-family:微软雅黑;color:#444;font-style:normal;text-align:left;font-weight:400" fill="#444" align="top" anchor="start" font-size="17" font-weight="normal" text-anchor="start"><tspan x="97.32" y="207.711"><tspan>head</tspan></tspan></text></g></g><g id="6e653fee7223"><rect style="fill:transparent;stroke:none" width="49" height="26" x="30" y="266.508" rx="1" ry="1"/><g><text style="font-size:13px;font-family:微软雅黑;color:#444;font-style:normal;text-align:left;font-weight:400" fill="#444" align="top" anchor="start" font-size="13" font-weight="normal" text-anchor="start"><tspan x="39" y="283.047"><tspan style="font-weight:700">meta</tspan></tspan></text></g></g><g id="416b42146fba"><rect style="fill:transparent;stroke:none" width="48" height="26" x="124.508" y="266.508" rx="1" ry="1"/><g><text style="font-size:13px;font-family:微软雅黑;color:#444;font-style:normal;text-align:left;font-weight:400" fill="#444" align="top" anchor="start" font-size="13" font-weight="normal" text-anchor="start"><tspan x="133.508" y="283.047"><tspan style="font-weight:700">title</tspan></tspan></text></g></g><g id="b395178595fb"><rect style="fill:transparent;stroke:none" width="109" height="24" x="94.008" y="332.242" rx="1" ry="1"/><g><text style="font-size:13px;font-family:微软雅黑;color:#444;font-style:normal;text-align:left;font-weight:400" fill="#444" align="top" anchor="start" font-size="13" font-weight="normal" text-anchor="start"><tspan x="103.008" y="348.781"><tspan>我的第一个网页</tspan></tspan></text></g></g><g id="sdjakdjak0" transform="translate(243, 177)"><g id="subline_4a6f370f4769" transform="translate(0.5,0.5)"><path id="line_56d7410c20ab" fill="none" stroke="#e85d4e" stroke-linecap="round" stroke-width="2" d="M322 52 L322 76 L35 76L35 87" p="4a6f370f4769"/><path id="line_98533138cc37" fill="none" stroke="#e85d4e" stroke-linecap="round" stroke-width="2" d="M35 116 L35 140 L35 140L35 153" p="56d7410c20ab"/><path id="line_f7776de4ebe8" fill="none" stroke="#e85d4e" stroke-linecap="round" stroke-width="2" d="M322 52 L322 76 L109 76L109 87" p="4a6f370f4769"/><path id="line_7bd0a9c4dc96" fill="none" stroke="#e85d4e" stroke-linecap="round" stroke-width="2" d="M322 52 L322 76 L237 76L237 87" p="4a6f370f4769"/><path id="line_ddaccdb02985" fill="none" stroke="#e85d4e" stroke-linecap="round" stroke-width="2" d="M237 116 L237 140 L181 140L181 153" p="7bd0a9c4dc96"/><path id="line_8296c6c8915a" fill="none" stroke="#e85d4e" stroke-linecap="round" stroke-width="2" d="M237 116 L237 140 L278 140L278 153" p="7bd0a9c4dc96"/><path id="line_45756d28929d" fill="none" stroke="#e85d4e" stroke-linecap="round" stroke-width="2" d="M278 182 L278 206 L278 206L278 218" p="8296c6c8915a"/><path id="line_1098bab02520" fill="none" stroke="#e85d4e" stroke-linecap="round" stroke-width="2" d="M322 52 L322 76 L370 76L370 87" p="4a6f370f4769"/><path id="line_0f899d1cb9a7" fill="none" stroke="#e85d4e" stroke-linecap="round" stroke-width="2" d="M370 116 L370 140 L370 140L370 153" p="1098bab02520"/><path id="line_c17960a6de53" fill="none" stroke="#e85d4e" stroke-linecap="round" stroke-width="2" d="M322 52 L322 76 L530 76L530 87" p="4a6f370f4769"/><path id="line_a2562fa0e1c0" fill="none" stroke="#e85d4e" stroke-linecap="round" stroke-width="2" d="M530 116 L530 140 L447 140L447 153" p="c17960a6de53"/><path id="line_ff97190bbaf8" fill="none" stroke="#e85d4e" stroke-linecap="round" stroke-width="2" d="M530 116 L530 140 L523 140L523 153" p="c17960a6de53"/><path id="line_05296e2d09c4" fill="none" stroke="#e85d4e" stroke-linecap="round" stroke-width="2" d="M523 182 L523 206 L523 206L523 218" p="ff97190bbaf8"/><path id="line_ce1336df0eb8" fill="none" stroke="#e85d4e" stroke-linecap="round" stroke-width="2" d="M530 116 L530 140 L606 140L606 153" p="c17960a6de53"/></g></g><g id="sdjakdjak1" transform="translate(30, 177)"><g id="subline_776c21eaf6b2" transform="translate(0.5,0.5)"><path id="line_6e653fee7223" fill="none" stroke="#3AA9CE" stroke-linecap="round" stroke-width="2" d="M86 52 L86 76 L24 76L24 87" p="776c21eaf6b2"/><path id="line_416b42146fba" fill="none" stroke="#3AA9CE" stroke-linecap="round" stroke-width="2" d="M86 52 L86 76 L118 76L118 87" p="776c21eaf6b2"/><path id="line_b395178595fb" fill="none" stroke="#3AA9CE" stroke-linecap="round" stroke-width="2" d="M118 116 L118 140 L118 140L118 153" p="416b42146fba"/></g></g><g id="root"><rect style="fill:#fff;stroke:#3aa9ce;stroke-width:6px" width="96" height="87" x="411.5" y="30" rx="5" ry="5"/><g><text style="font-size:30px;font-family:微软雅黑;color:#333;font-style:normal;text-align:left;font-weight:400" fill="#333" align="top" anchor="start" font-size="30" font-weight="normal" text-anchor="start"><tspan x="429.5" y="84.242"><tspan>html</tspan></tspan></text></g></g></svg>